<svg width="23" height="23" viewBox="0 0 23 23" fill="none" xmlns="http://www.w3.org/2000/svg">
<path d="M9.28941 2.17427C9.87066 0.295919 12.5294 0.295922 13.1106 2.17428L14.3114 6.05464C14.5706 6.89228 15.3452 7.46341 16.222 7.46341H20.3076C22.2213 7.46341 23.0422 9.89279 21.5206 11.0535L18.0501 13.7011C17.3831 14.2099 17.1046 15.081 17.3526 15.8824L18.6382 20.0368C19.2137 21.8968 17.0624 23.3991 15.5145 22.2182L12.4131 19.8522C11.6967 19.3057 10.7033 19.3057 9.98697 19.8522L6.88556 22.2182C5.33762 23.3991 3.18634 21.8968 3.76189 20.0368L5.04746 15.8824C5.29547 15.081 5.01692 14.2099 4.34991 13.7011L0.879405 11.0535C-0.64214 9.89279 0.178721 7.46341 2.09247 7.46341H6.17803C7.05485 7.46341 7.82944 6.89228 8.08864 6.05464L9.28941 2.17427Z" fill="#D9D9D9"/>
</svg>
