<svg width="23" height="23" viewBox="0 0 23 23" fill="none" xmlns="http://www.w3.org/2000/svg">
<path d="M9.48936 2.17427C10.0706 0.295919 12.7293 0.295922 13.3106 2.17428L14.5114 6.05464C14.7706 6.89228 15.5451 7.46341 16.422 7.46341H20.5075C22.4213 7.46341 23.2421 9.89279 21.7206 11.0535L18.2501 13.7011C17.5831 14.2099 17.3045 15.081 17.5525 15.8824L18.8381 20.0368C19.4137 21.8968 17.2624 23.3991 15.7144 22.2182L12.613 19.8522C11.8967 19.3057 10.9033 19.3057 10.1869 19.8522L7.08551 22.2182C5.53757 23.3991 3.38629 21.8968 3.96184 20.0368L5.24741 15.8824C5.49542 15.081 5.21687 14.2099 4.54986 13.7011L1.07936 11.0535C-0.442189 9.89279 0.378673 7.46341 2.29242 7.46341H6.37798C7.25481 7.46341 8.02939 6.89228 8.28859 6.05464L9.48936 2.17427Z" fill="#FFF700"/>
</svg>
