<svg width="108" height="108" viewBox="0 0 108 108" fill="none" xmlns="http://www.w3.org/2000/svg">
<ellipse cx="54" cy="53.9345" rx="54" ry="53.3388" fill="#EADDFF"/>
<rect x="13" y="13.4365" width="82" height="80.9959" rx="40.498" fill="#EADDFF"/>
<path fill-rule="evenodd" clip-rule="evenodd" d="M66.3005 45.8349C66.3005 52.5449 60.7936 57.9843 54.0005 57.9843C47.2074 57.9843 41.7005 52.5449 41.7005 45.8349C41.7005 39.125 47.2074 33.6855 54.0005 33.6855C60.7936 33.6855 66.3005 39.125 66.3005 45.8349ZM62.2005 45.8349C62.2005 50.3082 58.5292 53.9345 54.0005 53.9345C49.4718 53.9345 45.8005 50.3082 45.8005 45.8349C45.8005 41.3617 49.4718 37.7353 54.0005 37.7353C58.5292 37.7353 62.2005 41.3617 62.2005 45.8349Z" fill="#4F378A"/>
<path d="M54.0005 64.059C40.728 64.059 29.4195 71.8112 25.1118 82.672C26.1612 83.7012 27.2666 84.6748 28.4232 85.5878C31.631 75.6165 41.6938 68.1088 54.0005 68.1088C66.3072 68.1088 76.3701 75.6165 79.5778 85.5879C80.7344 84.6749 81.8398 83.7013 82.8892 82.672C78.5815 71.8112 67.273 64.059 54.0005 64.059Z" fill="#4F378A"/>
</svg>
